Coordinates
version=1
nRows=8
nColumns=36
inDegrees=yes

Units are S.I. units (second, meters, Newtons, ...)
If the header above contains a line with 'inDegrees', this indicates whether rotational values are in degrees (yes) or radians (no).

endheader
time	pelvis_tilt	pelvis_list	pelvis_rotation	pelvis_tx	pelvis_ty	pelvis_tz	hip_flexion_r	hip_adduction_r	hip_rotation_r	knee_angle_r	knee_angle_r_beta	ankle_angle_r	subtalar_angle_r	mtp_angle_r	hip_flexion_l	hip_adduction_l	hip_rotation_l	knee_angle_l	knee_angle_l_beta	ankle_angle_l	subtalar_angle_l	mtp_angle_l	lumbar_extension	lumbar_bending	lumbar_rotation	arm_flex_r	arm_add_r	arm_rot_r	elbow_flex_r	pro_sup_r	arm_flex_l	arm_add_l	arm_rot_l	elbow_flex_l	pro_sup_l
      2.93750000	    -35.14339792	     -2.50848885	      9.34446217	      0.05828579	      0.49991868	     -0.00949039	    111.72014083	      1.40050688	      9.92986010	    120.25764412	      2.09889184	     33.73303015	    -27.61528928	     -7.49999987	    114.83904353	     -1.94587231	      8.43328888	    112.49469842	      1.96340288	     27.67905643	    -13.29593731	     -7.49999987	    -23.55377679	      2.00239618	      1.56689581	    112.60171267	    -10.05234409	     31.29647856	     87.30324551	     89.71942000	     84.60336337	    -21.01344073	     14.62430769	     95.69232390	     78.21046185
      2.94166670	    -35.52604109	     -2.20213471	      9.46356997	      0.06790887	      0.51438757	     -0.00866691	    110.45897507	      1.94361417	     10.22250523	    118.80316459	      2.07350638	     33.28441881	    -28.37130944	     -7.49999987	    113.54009386	     -2.09639112	      7.78000313	    111.02510742	      1.93775368	     27.82885829	    -12.92871622	     -7.49999987	    -22.87993796	      1.63944599	      2.19461187	    112.67858343	    -10.78616429	     32.51529781	     89.18464059	     87.59101526	     84.50066438	    -20.33708273	     14.84694630	     95.59831485	     77.14965906
      2.94583330	    -35.61641922	     -1.89208441	      9.46046722	      0.06729404	      0.52126547	     -0.00960655	    109.05475665	      2.39964772	     10.67191251	    117.27872696	      2.04689993	     32.57176655	    -28.75771501	     -7.49999987	    112.01751038	     -2.10972218	      7.37410920	    109.38375715	      1.90910671	     27.81337251	    -13.14212291	     -7.49999987	    -22.30436616	      1.09748697	      2.48169747	    112.10828880	    -11.54447192	     33.15910233	     90.62506021	     86.18135537	     84.62967117	    -20.30108017	     15.72819838	     95.22259887	     76.25224597
      2.95000000	    -35.43310992	     -1.43063072	      8.92710610	      0.06275386	      0.52097475	     -0.01197024	    108.30872171	      2.85834565	     10.98447401	    116.48475652	      2.03304253	     32.48099847	    -28.48444990	     -7.49999987	    110.94236853	     -2.32538370	      7.05727168	    108.86472080	      1.90004782	     28.15864134	    -13.81553488	     -7.49999987	    -21.79433742	      0.77014158	      2.98593219	    112.43845065	    -11.35919899	     33.41368815	     90.85274032	     86.34903902	     84.13183807	    -20.67780070	     15.96512816	     94.75810855	     76.40994048
      2.95416670	    -35.28698173	     -1.15241262	      8.47960575	      0.07163062	      0.52845316	     -0.01341228	    107.15568682	      3.36631868	     11.32070623	    115.77918437	      2.02072797	     32.34289768	    -28.46483543	     -7.49999987	    109.70177148	     -2.57734992	      6.80387088	    108.26379258	      1.88955964	     28.09851399	    -14.50616122	     -7.49999987	    -21.37271132	      0.52854842	      3.33844586	    112.34721923	    -10.91485440	     34.04217667	     91.93775918	     86.54371965	     83.64168619	    -21.31484459	     16.17250328	     94.82287375	     76.58246634
      2.95833330	    -35.35716208	     -0.72638440	      8.13159267	      0.06653783	      0.52796670	     -0.01578870	    106.80749729	      3.73857712	     12.03497487	    115.24924450	      2.01147878	     31.89147319	    -28.73358783	     -7.49999987	    109.21492158	     -2.68123455	      6.23063943	    107.90476152	      1.88329337	     28.50791978	    -15.31428070	     -7.49999987	    -20.94083584	      0.27655256	      3.77120575	    113.54935180	    -10.35947657	     34.69652777	     91.96894350	     86.81157052	     84.38466347	    -21.84840020	     16.20967279	     94.70999743	     76.85300102
      2.96250000	    -35.38517672	     -0.49723634	      7.59205025	      0.07032522	      0.53213111	     -0.02092715	    106.36953894	      4.10935054	     12.61574323	    114.79321273	      2.00351952	     31.38454745	    -28.95477729	     -7.49999987	    108.75178700	     -2.76788279	      5.79612370	    107.71344888	      1.87995433	     28.56520660	    -15.94714892	     -7.49999987	    -20.52797075	      0.31721262	      4.26634181	    115.92320079	     -9.95693607	     36.37955742	     90.69828810	     87.33652744	     85.05667871	    -22.44734814	     16.58064106	     94.83643912	     77.43265341
      2.96666670	    -35.65286102	     -0.27883954	      6.88679214	      0.07764785	      0.53613743	     -0.02907154	    105.74681200	      4.38544055	     13.09439929	    114.12850752	      1.99191823	     31.51908589	    -29.03002524	     -7.49999987	    108.25512604	     -2.83683777	      5.34936771	    107.61217270	      1.87818673	     29.24930362	    -16.60858406	     -7.49999987	    -19.29124862	      0.61686417	      4.87220493	    116.80266213	     -9.54472582	     36.72866613	     90.95867037	     87.48156816	     85.20224587	    -23.24266148	     16.75779607	     95.05761245	     77.63269860
